<svg width="200" height="200" viewBox="0 0 200 200" fill="none" xmlns="http://www.w3.org/2000/svg">
<rect width="200" height="200" fill="white"/>
<path d="M175 40.625H25C22.5136 40.625 20.129 41.6127 18.3709 43.3709C16.6127 45.129 15.625 47.5136 15.625 50V150C15.625 152.486 16.6127 154.871 18.3709 156.629C20.129 158.387 22.5136 159.375 25 159.375H175C177.486 159.375 179.871 158.387 181.629 156.629C183.387 154.871 184.375 152.486 184.375 150V50C184.375 47.5136 183.387 45.129 181.629 43.3709C179.871 41.6127 177.486 40.625 175 40.625ZM25 46.875H175C175.829 46.875 176.624 47.2042 177.21 47.7903C177.796 48.3763 178.125 49.1712 178.125 50V72.5781H21.875V50C21.875 49.1712 22.2042 48.3763 22.7903 47.7903C23.3763 47.2042 24.1712 46.875 25 46.875ZM175 153.125H25C24.1712 153.125 23.3763 152.796 22.7903 152.21C22.2042 151.624 21.875 150.829 21.875 150V78.8281H178.125V150C178.125 150.829 177.796 151.624 177.21 152.21C176.624 152.796 175.829 153.125 175 153.125ZM159.375 131.25C159.375 132.079 159.046 132.874 158.46 133.46C157.874 134.046 157.079 134.375 156.25 134.375H131.25C130.421 134.375 129.626 134.046 129.04 133.46C128.454 132.874 128.125 132.079 128.125 131.25C128.125 130.421 128.454 129.626 129.04 129.04C129.626 128.454 130.421 128.125 131.25 128.125H156.25C157.079 128.125 157.874 128.454 158.46 129.04C159.046 129.626 159.375 130.421 159.375 131.25ZM109.375 131.25C109.375 132.079 109.046 132.874 108.46 133.46C107.874 134.046 107.079 134.375 106.25 134.375H93.75C92.9212 134.375 92.1263 134.046 91.5403 133.46C90.9542 132.874 90.625 132.079 90.625 131.25C90.625 130.421 90.9542 129.626 91.5403 129.04C92.1263 128.454 92.9212 128.125 93.75 128.125H106.25C107.079 128.125 107.874 128.454 108.46 129.04C109.046 129.626 109.375 130.421 109.375 131.25Z" fill="#333333"/>
</svg>
